<svg id="setting-2" xmlns="http://www.w3.org/2000/svg" width="32" height="32" viewBox="0 0 32 32">
  <g id="vuesax_bold_setting-2" data-name="vuesax/bold/setting-2">
    <g id="setting-2-2" data-name="setting-2">
      <path id="Vector" d="M17.612,25.17a2.26,2.26,0,0,1-1.931-1.105l-.148-.253a2.674,2.674,0,0,0-2.2-1.57,2.653,2.653,0,0,0-2.188,1.57L11,24.065A2.263,2.263,0,0,1,9.068,25.17a2.17,2.17,0,0,1-1.108-.305l-2.306-1.32a2.534,2.534,0,0,1-.934-3.454,2.664,2.664,0,0,0,.267-2.684,2.661,2.661,0,0,0-2.453-1.115A2.537,2.537,0,0,1,0,13.758V11.412A2.536,2.536,0,0,1,2.533,8.879,2.66,2.66,0,0,0,4.988,7.762a2.646,2.646,0,0,0-.269-2.67,2.543,2.543,0,0,1,.934-3.467L7.96.305A2.168,2.168,0,0,1,9.067,0a2.2,2.2,0,0,1,1.906,1.105l.148.253a2.674,2.674,0,0,0,2.2,1.571,2.653,2.653,0,0,0,2.188-1.571l.146-.253A2.263,2.263,0,0,1,17.585,0a2.17,2.17,0,0,1,1.108.305L21,1.625a2.533,2.533,0,0,1,.934,3.454,2.671,2.671,0,0,0-.255,2.687,2.667,2.667,0,0,0,2.454,1.114,2.56,2.56,0,0,1,2.546,2.533v2.346a2.537,2.537,0,0,1-2.533,2.534,2.661,2.661,0,0,0-2.453,1.115,2.664,2.664,0,0,0,.267,2.684,2.532,2.532,0,0,1-.934,3.454l-2.306,1.32A2.17,2.17,0,0,1,17.612,25.17ZM13.333,8.253a4.333,4.333,0,1,0,4.333,4.333A4.338,4.338,0,0,0,13.333,8.253Z" transform="translate(2.667 3.416)" fill="#fff"/>
      <path id="Vector-2" data-name="Vector" d="M32,0V32H0V0Z" transform="translate(32 32) rotate(180)" fill="#fff" opacity="0"/>
    </g>
  </g>
</svg>
