<svg id="location-tick" xmlns="http://www.w3.org/2000/svg" width="24" height="24" viewBox="0 0 24 24">
  <g id="vuesax_bold_location-tick" data-name="vuesax/bold/location-tick">
    <path id="Vector" d="M8.874,20.51a5.431,5.431,0,0,1-3.78-1.53C2.235,16.221-.926,11.849.254,6.69A8.614,8.614,0,0,1,8.864,0h.01a8.609,8.609,0,0,1,8.62,6.7c1.168,5.152-1.993,9.522-4.85,12.28A5.385,5.385,0,0,1,8.874,20.51ZM6.124,8.752a.75.75,0,0,0-.53,1.277l1.5,1.5a.747.747,0,0,0,1.06,0l4-4a.751.751,0,0,0,0-1.06.755.755,0,0,0-1.06,0L7.624,9.94l-.97-.969A.742.742,0,0,0,6.124,8.752Z" transform="translate(3.125 2)" fill="#fff"/>
    <path id="Vector-2" data-name="Vector" d="M24,0V24H0V0Z" fill="#fff" opacity="0"/>
    <path id="Vector-3" data-name="Vector" d="M24,0V24H0V0Z" transform="translate(24 24) rotate(180)" fill="#fff" opacity="0"/>
  </g>
</svg>
