<svg xmlns="http://www.w3.org/2000/svg" width="24" height="23.392" viewBox="0 0 24 23.392">
  <path id="Icon_awesome-arrow-left" data-name="Icon awesome-arrow-left" d="M13.792,24.473,12.6,25.662a1.28,1.28,0,0,1-1.816,0L.374,15.254a1.28,1.28,0,0,1,0-1.816L10.787,3.025a1.28,1.28,0,0,1,1.816,0l1.189,1.189a1.287,1.287,0,0,1-.021,1.837L7.316,12.2H22.711A1.282,1.282,0,0,1,24,13.486V15.2a1.282,1.282,0,0,1-1.286,1.286H7.316l6.455,6.149A1.278,1.278,0,0,1,13.792,24.473Z" transform="translate(0.004 -2.647)" fill="#fff"/>
</svg>
