<svg id="message-notif" xmlns="http://www.w3.org/2000/svg" width="32" height="32" viewBox="0 0 32 32">
  <g id="vuesax_bold_message-notif" data-name="vuesax/bold/message-notif">
    <g id="message-notif-2" data-name="message-notif">
      <path id="Vector" d="M3.667,7.333A3.667,3.667,0,1,1,7.333,3.667,3.667,3.667,0,0,1,3.667,7.333Z" transform="translate(23 1.667)" fill="#fff"/>
      <path id="Vector-2" data-name="Vector" d="M13.333,26.667a2.007,2.007,0,0,1-1.6-.88l-2-2.653A1.479,1.479,0,0,0,8.666,22.6h-2A6.674,6.674,0,0,1,0,15.934V6.667A6.675,6.675,0,0,1,6.667,0H17.134a1.318,1.318,0,0,1,1.294,1.6,5.8,5.8,0,0,0,.04,2.347A5.638,5.638,0,0,0,22.72,8.2a6.058,6.058,0,0,0,2.347.041,1.392,1.392,0,0,1,.265-.026,1.328,1.328,0,0,1,1.335,1.318v6.414A6.66,6.66,0,0,1,20.014,22.6H18a1.331,1.331,0,0,0-1.067.534l-2,2.653A2.007,2.007,0,0,1,13.333,26.667Zm5.334-16A1.333,1.333,0,1,0,20,12,1.335,1.335,0,0,0,18.667,10.667Zm-5.334,0A1.333,1.333,0,1,0,14.666,12,1.335,1.335,0,0,0,13.333,10.667ZM8,10.667A1.333,1.333,0,1,0,9.334,12,1.335,1.335,0,0,0,8,10.667Z" transform="translate(2.667 2.667)" fill="#fff"/>
      <path id="Vector-3" data-name="Vector" d="M32,0V32H0V0Z" fill="#fff" opacity="0"/>
      <path id="Vector-4" data-name="Vector" d="M32,0V32H0V0Z" transform="translate(32 32) rotate(180)" fill="#fff" opacity="0"/>
    </g>
  </g>
</svg>
